<?xml version="1.0" encoding="utf-8"?>
<!-- Generator: Adobe Illustrator 16.0.4, SVG Export Plug-In . SVG Version: 6.00 Build 0)  -->
<!DOCTYPE svg PUBLIC "-//W3C//DTD SVG 1.1//EN" "http://www.w3.org/Graphics/SVG/1.1/DTD/svg11.dtd">
<svg version="1.1" id="Layer_1" xmlns="http://www.w3.org/2000/svg" xmlns:xlink="http://www.w3.org/1999/xlink" x="0px" y="0px"
	 width="455.879px" height="176.405px" viewBox="0 0 455.879 176.405" enable-background="new 0 0 455.879 176.405"
	 xml:space="preserve">
<g>
	
		<radialGradient id="SVGID_1_" cx="227.9395" cy="88.2017" r="240.6516" gradientTransform="matrix(1 0 0 0.4089 0 52.133)" gradientUnits="userSpaceOnUse">
		<stop  offset="0" style="stop-color:#33460E"/>
		<stop  offset="0.64" style="stop-color:#233500"/>
		<stop  offset="1" style="stop-color:#152100"/>
	</radialGradient>
	<path fill="url(#SVGID_1_)" stroke="#33460E" stroke-miterlimit="10" d="M227.936,2.017c-124.572,0-225.918,38.66-225.918,86.179
		c0,47.526,101.346,86.191,225.918,86.191c124.576,0,225.926-38.665,225.926-86.191C453.861,40.676,352.512,2.017,227.936,2.017z"/>
	<g>
		<g>
			<path fill="#33460E" d="M227.936,176.405c-60.734,0-117.85-9.095-160.824-25.608C23.834,134.166,0,111.934,0,88.196
				C0,64.46,23.834,42.231,67.111,25.604C110.086,9.093,167.199,0,227.936,0s117.854,9.093,160.83,25.604
				c43.279,16.628,67.113,38.857,67.113,62.592c0,23.738-23.834,45.97-67.113,62.601
				C345.789,167.31,288.672,176.405,227.936,176.405z M227.936,2.017c-124.572,0-225.918,38.66-225.918,86.179
				c0,47.526,101.346,86.191,225.918,86.191c124.576,0,225.926-38.665,225.926-86.191C453.861,40.676,352.512,2.017,227.936,2.017z"
				/>
		</g>
		<g>
			<path fill="#FFFFFF" d="M228.391,164.598c-56.807,0-110.225-7.862-150.412-22.138c-40.516-14.392-62.83-33.664-62.83-54.265
				c0-20.594,22.314-39.863,62.83-54.255c40.191-14.277,93.609-22.14,150.412-22.14c56.795,0,110.209,7.863,150.4,22.14
				c40.518,14.393,62.832,33.662,62.832,54.255c0,20.601-22.314,39.872-62.832,54.265
				C338.604,156.736,285.189,164.598,228.391,164.598z M228.391,13.817c-116.471,0-211.225,33.366-211.225,74.378
				c0,41.016,94.754,74.385,211.225,74.385c116.465,0,211.215-33.369,211.215-74.385C439.605,47.184,344.855,13.817,228.391,13.817z
				"/>
		</g>
		<path d="M82.127,104.042v-3l1.34-0.135c1.162-0.162,2.188-1.239,3.057-3.249l1.318-2.946l15.365-39.341h3.787l16.207,39.354
			l1.68,3.563c0.844,1.831,2.217,2.753,4.131,2.753v3h-20.91v-3c2.812,0,4.225-0.48,4.225-1.421c0-0.621-0.561-2.271-1.666-4.923
			l-1.66-4H93.385l-1.576,4c-1.057,2.664-1.584,4.312-1.584,4.938c0,0.926,1.166,1.406,3.492,1.406v3H82.127z M94.568,87.694h13.17
			l-6.77-16.227L94.568,87.694z"/>
		<path d="M129.443,103.996v-3.011c3.609,0,5.424-0.9,5.424-2.682l0.16-3.805V65.95l-0.16-3.809c0-1.756-1.814-2.635-5.424-2.635
			v-3.014h17.5l2.334-0.029l3.141-0.109l3.312-0.064c10.805,0,16.205,3.828,16.205,11.508c0,6.213-3.332,10.477-9.975,12.796
			L170.1,95.12c1.947,3.457,4.023,5.416,6.229,5.865v3.011h-13.449l-12.178-21.729h-3.809v12.217l0.174,3.816
			c0,1.006,0.193,1.664,0.582,1.984c0.393,0.295,1.734,0.545,4.037,0.701v3.011H129.443z M146.893,59.506v19.751h1.896
			c7.531,0,11.291-3.583,11.291-10.788c0-5.978-3.332-8.963-9.99-8.963H146.893z"/>
		<path d="M176.854,104.042v-3c3.615,0,5.426-0.894,5.426-2.676l0.176-3.816V66.01l-0.176-3.814c0-1.752-1.811-2.639-5.426-2.639
			v-3.012h22.654v3.012c-2.162,0.068-3.549,0.222-4.143,0.467c-0.58,0.234-0.879,0.967-0.879,2.181l-0.182,3.806v11.858
			l15.201-11.975l3.412-2.993c1.473-1.246,2.207-2.064,2.207-2.438c0-0.607-0.844-0.906-2.531-0.906h-0.973v-3.012h15.057v3.012
			h-0.98c-1.961,0-3.906,0.778-5.816,2.34l-5.15,4.113l-12.148,9.605l17.629,19.24l4,3.877c1.496,1.527,3.158,2.299,5.002,2.299
			v3.01h-21.584v-3c1.299-0.049,1.953-0.396,1.953-1.047c0-0.207-0.504-0.914-1.494-2.111l-2.621-3.146l-11.09-12.932h-0.072v12.752
			l0.182,3.809c0,1.782,1.541,2.676,4.619,2.676v3H176.854z"/>
		<path d="M249.574,104.438L232.076,66.01l-1.744-3.566c-0.904-1.926-1.828-2.887-2.787-2.887v-3.012h20.922v3.012h-0.949
			c-3.068,0-4.594,0.439-4.594,1.301c0,0.662,0.641,2.371,1.91,5.128l10.883,23.933l10.436-23.908l1.084-2.535
			c0.539-1.174,0.828-2.028,0.828-2.57c0-0.879-0.803-1.325-2.363-1.348h-2.98v-3.012h11.717v3.012c-0.951,0-2.379,2.16-4.266,6.453
			l-16.756,38.428H249.574z"/>
		<path d="M275.662,104.042v-3c3.619,0,5.416-0.894,5.416-2.676l0.186-3.816V66.01l-0.186-3.814c0-1.752-1.797-2.639-5.416-2.639
			v-3.012h23.055v3.012c-3.619,0-5.428,0.887-5.428,2.639l-0.18,3.814v28.539l0.18,3.816c0,1.782,1.809,2.676,5.428,2.676v3H275.662
			z"/>
		<path d="M299.717,104.042v-3c3.611,0,5.416-0.894,5.416-2.676l0.174-3.816V66.01l-0.174-3.814c0-1.752-1.805-2.639-5.416-2.639
			v-3.012h37.689v8.375h-3.865v-0.792l-0.059-2.106c0-1.641-1.736-2.465-5.197-2.465h-11.123v17.929h6.564l3.057-0.102
			c1.492,0,2.24-0.687,2.24-2.068v-1.103h3.852v9.422h-3.852v-1.147c0-1.345-0.748-2.028-2.24-2.028l-3.057-0.1h-6.564v14.217
			c0,2.598,0.191,4.332,0.566,5.178c0.383,0.859,2.486,1.287,6.316,1.287h2.99l4.541-0.105c1.373,0,2.174-0.275,2.41-0.852
			c0.252-0.55,0.355-1.843,0.355-3.845v-0.958h4.268v8.76H299.717z"/>
		<path d="M355.709,104.438L343.74,66.042c-0.818-2.634-1.473-4.368-1.984-5.216c-0.512-0.845-1.814-1.269-3.91-1.269v-3.012h20.779
			v3.012h-0.941c-2.602,0-3.902,0.446-3.902,1.334c-0.004,0.691,0.416,2.411,1.273,5.15l6.84,21.75h0.023l10.711-30.327h5.357
			l10.68,30.657h0.062l6.949-22.095l0.635-2.22c0.443-1.58,0.666-2.502,0.666-2.76c0-0.984-1.422-1.49-4.262-1.49v-3.012h12.664
			v3.012c-2.455,0-3.947,0.828-4.455,2.477l-1.293,4.008l-12.129,38.396h-4.33l-11.953-32.771l-11.154,32.771H355.709z"/>
		<path d="M64.322,83.709v10.781c0,2.723,0.238,4.478,0.709,5.288c0.475,0.8,2.375,1.206,5.684,1.206v3.011h-23.84v-3.011
			c3.609,0,5.424-0.9,5.424-2.682l0.168-3.805V65.95l-0.168-3.809c0-1.597-1.814-2.484-5.424-2.635v-3.014H64.43l3.217-0.029
			l3.459-0.109l2.83-0.064c10.91,0,16.369,4.078,16.369,12.249c0,10.108-7.584,15.171-22.75,15.171H64.322z M64.322,80.698h1.912
			c8.139,0,12.213-3.836,12.213-11.506c0-6.458-3.545-9.686-10.617-9.686h-3.508V80.698z"/>
		<path fill="#FFFFFF" d="M67.496,81.286v10.782c0,2.727,0.238,4.481,0.705,5.29c0.48,0.796,2.373,1.197,5.686,1.197v3.012H50.051
			v-3.012c3.607,0,5.414-0.884,5.414-2.684l0.18-3.794V63.522l-0.18-3.803c0-1.604-1.807-2.479-5.414-2.643v-3.008h17.555
			l3.215-0.036l3.461-0.104l2.834-0.063c10.904,0,16.359,4.083,16.359,12.252c0,10.108-7.582,15.168-22.748,15.168H67.496z
			 M67.496,78.27h1.908c8.145,0,12.213-3.828,12.213-11.513c0-6.448-3.541-9.681-10.615-9.681h-3.506V78.27z"/>
		<path fill="#FFFFFF" d="M85.293,101.62v-3.001l1.35-0.142c1.16-0.158,2.184-1.242,3.051-3.244l1.32-2.934l15.371-39.352h3.775
			l16.209,39.352l1.688,3.557c0.842,1.842,2.217,2.763,4.129,2.763v3.001h-20.906v-3.001c2.811,0,4.219-0.479,4.219-1.419
			c0-0.629-0.557-2.271-1.666-4.939l-1.668-3.992H96.557l-1.574,3.992c-1.059,2.686-1.582,4.326-1.582,4.955
			c0,0.925,1.154,1.403,3.484,1.403v3.001H85.293z M97.742,85.272h13.174l-6.768-16.238L97.742,85.272z"/>
		<path fill="#FFFFFF" d="M132.611,101.567v-3.012c3.621,0,5.422-0.884,5.422-2.684l0.182-3.794V63.522l-0.182-3.803
			c0-1.759-1.801-2.643-5.422-2.643v-3.008h17.504l2.336-0.036l3.137-0.104l3.312-0.063c10.801,0,16.205,3.826,16.205,11.507
			c0,6.202-3.326,10.48-9.975,12.8l8.145,14.515c1.945,3.474,4.02,5.425,6.225,5.868v3.012h-13.441l-12.188-21.723h-3.803v12.211
			l0.172,3.816c0,1.012,0.195,1.67,0.582,1.979c0.389,0.311,1.732,0.546,4.037,0.705v3.012H132.611z M150.068,57.077v19.756h1.896
			c7.523,0,11.289-3.6,11.289-10.777c0-5.987-3.33-8.979-9.984-8.979H150.068z"/>
		<path fill="#FFFFFF" d="M180.035,101.62v-3.001c3.611,0,5.422-0.896,5.422-2.677l0.162-3.813V63.584l-0.162-3.812
			c0-1.761-1.811-2.637-5.422-2.637V54.12h22.639v3.016c-2.158,0.076-3.541,0.225-4.137,0.467c-0.582,0.234-0.881,0.962-0.881,2.182
			l-0.176,3.806v11.849l15.188-11.963l3.416-3.002c1.479-1.254,2.215-2.057,2.215-2.436c0-0.602-0.844-0.902-2.535-0.902h-0.967
			V54.12h15.049v3.016h-0.975c-1.965,0-3.895,0.779-5.811,2.332l-5.162,4.117l-12.143,9.604l17.623,19.256l4.01,3.867
			c1.492,1.529,3.15,2.303,4.99,2.303v3.006h-21.58v-3.001c1.305-0.051,1.953-0.399,1.953-1.041c0-0.22-0.496-0.918-1.494-2.115
			l-2.619-3.151l-11.084-12.932h-0.074v12.749l0.176,3.813c0,1.78,1.539,2.677,4.623,2.677v3.001H180.035z"/>
		<path fill="#FFFFFF" d="M252.744,102.014l-17.486-38.425l-1.75-3.572c-0.898-1.92-1.838-2.882-2.785-2.882V54.12h20.916v3.016
			h-0.949c-3.068,0-4.6,0.434-4.6,1.3c0,0.662,0.639,2.376,1.92,5.132l10.883,23.922l10.424-23.899l1.084-2.536
			c0.553-1.164,0.844-2.025,0.844-2.579c0-0.872-0.793-1.315-2.371-1.339h-2.992V54.12h11.738v3.016
			c-0.967,0-2.379,2.151-4.275,6.454l-16.748,38.425H252.744z"/>
		<path fill="#FFFFFF" d="M278.84,101.62v-3.001c3.611,0,5.42-0.896,5.42-2.677l0.174-3.813V63.584l-0.174-3.812
			c0-1.761-1.809-2.637-5.42-2.637V54.12h23.045v3.016c-3.619,0-5.424,0.876-5.424,2.637l-0.182,3.812v28.544l0.182,3.813
			c0,1.78,1.805,2.677,5.424,2.677v3.001H278.84z"/>
		<path fill="#FFFFFF" d="M302.887,101.62v-3.001c3.613,0,5.414-0.896,5.414-2.677l0.184-3.813V63.584l-0.184-3.812
			c0-1.761-1.801-2.637-5.414-2.637V54.12h37.699v8.387h-3.863V61.7l-0.074-2.115c0-1.624-1.727-2.449-5.191-2.449h-11.115v17.924
			h6.559l3.061-0.1c1.488,0,2.232-0.688,2.232-2.061v-1.108h3.855v9.416h-3.855v-1.146c0-1.344-0.744-2.018-2.232-2.018
			l-3.061-0.102h-6.559v14.213c0,2.599,0.189,4.332,0.562,5.178c0.377,0.853,2.482,1.286,6.322,1.286h2.982l4.535-0.106
			c1.375,0,2.189-0.283,2.414-0.841c0.246-0.565,0.355-1.843,0.355-3.853V92.86h4.27v8.76H302.887z"/>
		<path fill="#FFFFFF" d="M358.875,102.014L346.91,63.606c-0.811-2.621-1.471-4.355-1.986-5.205c-0.504-0.842-1.814-1.266-3.9-1.266
			V54.12h20.773v3.016h-0.936c-2.607,0-3.908,0.438-3.908,1.333c0,0.692,0.418,2.407,1.283,5.151l6.824,21.751h0.039l10.705-30.327
			h5.361l10.678,30.659h0.061l6.941-22.099l0.631-2.232c0.449-1.565,0.67-2.48,0.67-2.741c0-1.005-1.408-1.495-4.25-1.495V54.12
			h12.65v3.016c-2.449,0-3.932,0.825-4.438,2.469l-1.309,4.002l-12.119,38.408h-4.328l-11.973-32.776l-11.141,32.776H358.875z"/>
		<rect x="44.43" y="111.424" fill="#FFFFFF" width="360.004" height="3.266"/>
		<g>
			<g>
				<path d="M121.828,151.105v-1.578c2.408,0,3.623-0.461,3.623-1.375l0.135-1.947v-14.713l-0.135-1.957
					c0-0.909-1.215-1.362-3.623-1.362v-1.58h11.746v10.296h7.986v-5.396l-0.123-1.957c0-0.909-1.213-1.362-3.637-1.362v-1.58h15.492
					v1.58c-2.424,0-3.629,0.453-3.629,1.362l-0.123,1.957v14.713l0.123,1.947c0,0.914,1.205,1.375,3.629,1.375v1.578h-11.732
					v-12.248h-7.986v7.346l0.107,1.938c0,0.926,1.217,1.387,3.641,1.387v1.578H121.828z"/>
				<path fill="#FFFFFF" d="M123.439,149.73v-1.566c2.406,0,3.617-0.465,3.617-1.387l0.137-1.936v-14.715l-0.137-1.968
					c0-0.908-1.211-1.363-3.617-1.363v-1.578h11.742v10.304h7.977v-5.395l-0.111-1.968c0-0.908-1.213-1.363-3.633-1.363v-1.578
					h15.488v1.578c-2.424,0-3.637,0.455-3.637,1.363l-0.119,1.968v14.715l0.119,1.936c0,0.922,1.213,1.387,3.637,1.387v1.566
					h-11.744v-12.25h-7.977v7.344l0.119,1.953c0,0.922,1.203,1.387,3.629,1.387v1.566H123.439z"/>
			</g>
			<g>
				<path d="M180.893,151.716c-4.238,0-7.602-1.15-10.088-3.477s-3.732-5.438-3.732-9.377c0-3.967,1.256-7.09,3.756-9.396
					c2.504-2.306,5.92-3.448,10.258-3.448s7.764,1.143,10.271,3.44c2.506,2.291,3.768,5.418,3.768,9.338
					c0,4.064-1.262,7.229-3.781,9.506C188.82,150.589,185.344,151.716,180.893,151.716z M181.184,150.072
					c3.518,0,5.281-3.809,5.281-11.436c0-7.311-1.793-10.964-5.379-10.964c-3.576,0-5.35,3.728-5.35,11.185
					C175.736,146.324,177.543,150.072,181.184,150.072z"/>
				<path fill="#FFFFFF" d="M182.506,150.355c-4.236,0-7.607-1.164-10.092-3.492c-2.492-2.314-3.729-5.436-3.729-9.355
					c0-3.971,1.248-7.102,3.756-9.403c2.504-2.305,5.918-3.455,10.258-3.455c4.33,0,7.748,1.139,10.268,3.447
					c2.504,2.286,3.76,5.411,3.76,9.341c0,4.051-1.256,7.229-3.777,9.506C190.432,149.218,186.953,150.355,182.506,150.355z
					 M182.791,148.701c3.52,0,5.283-3.812,5.283-11.428c0-7.311-1.795-10.964-5.375-10.964c-3.57,0-5.357,3.71-5.357,11.171
					C177.342,144.964,179.164,148.701,182.791,148.701z"/>
			</g>
			<g>
				<path d="M208.855,126.592h13.867l8.678,14.444l9.168-14.444h11.734v1.58c-1.844,0-2.932,0.191-3.264,0.596
					c-0.33,0.403-0.488,1.3-0.488,2.724v14.713c0,1.42,0.158,2.328,0.48,2.734c0.318,0.387,1.416,0.588,3.271,0.588v1.578h-14.906
					v-1.578c2.047,0,3.074-0.461,3.074-1.375l0.096-1.947v-15.211l-10.512,16.537h-3.373l-10.072-16.764v15.438l0.092,1.947
					c0,0.914,1.025,1.375,3.088,1.375v1.578h-10.934v-1.578c1.875,0,2.953-0.201,3.275-0.588c0.314-0.406,0.488-1.314,0.488-2.734
					v-14.713c0-1.41-0.174-2.312-0.488-2.724c-0.322-0.396-1.4-0.596-3.275-0.596V126.592z"/>
				<path fill="#FFFFFF" d="M210.469,125.217h13.867l8.668,14.45l9.186-14.45h11.73v1.578c-1.852,0-2.941,0.199-3.268,0.598
					c-0.326,0.396-0.49,1.312-0.49,2.733v14.715c0,1.41,0.158,2.324,0.482,2.73c0.32,0.389,1.408,0.592,3.275,0.592v1.566H239
					v-1.566c2.066,0,3.084-0.465,3.084-1.387l0.092-1.936V129.63l-10.5,16.531h-3.385l-10.066-16.764v15.443l0.09,1.936
					c0,0.922,1.02,1.387,3.076,1.387v1.566h-10.922v-1.566c1.861,0,2.963-0.203,3.285-0.592c0.312-0.406,0.477-1.32,0.477-2.73
					v-14.715c0-1.405-0.164-2.323-0.477-2.718c-0.322-0.414-1.424-0.613-3.285-0.613V125.217z"/>
			</g>
			<g>
				<path d="M268.422,151.105v-1.578c2.42,0,3.637-0.461,3.637-1.375l0.115-1.947v-14.713l-0.115-1.957
					c0-0.909-1.217-1.362-3.637-1.362v-1.58h25.164v4.345h-2.557v-0.422l-0.043-1.096c0-0.839-1.146-1.247-3.455-1.247h-7.381v9.216
					h4.35l2.018-0.043c0.994,0,1.479-0.35,1.479-1.045v-0.604h2.553v4.881h-2.553v-0.594c0-0.703-0.484-1.061-1.479-1.061
					l-2.018-0.037h-4.35v7.33c0,1.332,0.133,2.209,0.385,2.652c0.244,0.439,1.643,0.658,4.17,0.658h1.977l3-0.055
					c0.906,0,1.436-0.146,1.596-0.426c0.158-0.295,0.236-0.939,0.236-1.963v-0.514h2.887v4.535H268.422z"/>
				<path fill="#FFFFFF" d="M270.039,149.73v-1.566c2.414,0,3.625-0.465,3.625-1.387l0.111-1.936v-14.715l-0.111-1.968
					c0-0.908-1.211-1.363-3.625-1.363v-1.578h25.148v4.353h-2.545v-0.42l-0.047-1.089c0-0.844-1.148-1.266-3.439-1.266h-7.389v9.229
					h4.338l2.025-0.035c0.986,0,1.48-0.357,1.48-1.061v-0.604h2.551v4.881h-2.551v-0.586c0-0.711-0.494-1.062-1.48-1.062
					l-2.025-0.033h-4.338v7.32c0,1.324,0.133,2.217,0.367,2.652c0.258,0.438,1.652,0.666,4.188,0.666h1.963l3.012-0.057
					c0.9,0,1.441-0.146,1.588-0.432c0.156-0.289,0.23-0.939,0.23-1.963v-0.51h2.887v4.527H270.039z"/>
			</g>
			<g>
				<path d="M310.238,150.824v-4.98h2.879c0,2.865,2.309,4.301,6.932,4.301c3.916,0,5.867-1.41,5.867-4.27
					c-0.049-1.666-1.68-3.121-4.875-4.371l-2.318-0.896c-5.662-2.213-8.484-4.787-8.484-7.725c0-2.078,1.045-3.742,3.135-4.999
					c2.078-1.25,4.857-1.865,8.332-1.865c2.721,0,5.834,0.359,9.361,1.098v4.397h-2.891c0-2.614-1.826-3.917-5.488-3.917
					c-3.617,0-5.43,1.25-5.43,3.778c0.008,1.449,1.582,2.814,4.748,4.102l2.342,0.963c5.799,2.314,8.701,4.938,8.691,7.846
					c0,2.264-1.182,4.066-3.512,5.412c-2.334,1.346-5.48,2.02-9.42,2.02C317.225,151.716,313.932,151.423,310.238,150.824z"/>
				<path fill="#FFFFFF" d="M311.84,149.457v-4.988h2.889c0,2.865,2.314,4.297,6.93,4.297c3.92,0,5.865-1.402,5.865-4.256
					c-0.051-1.676-1.674-3.127-4.879-4.379l-2.314-0.898c-5.66-2.201-8.49-4.785-8.49-7.719c0-2.074,1.051-3.729,3.137-4.979
					c2.09-1.264,4.869-1.885,8.334-1.885c2.723,0,5.85,0.361,9.359,1.098v4.394h-2.877c0-2.612-1.836-3.921-5.494-3.921
					c-3.613,0-5.432,1.266-5.432,3.788c0.008,1.451,1.586,2.816,4.752,4.1l2.348,0.951c5.799,2.318,8.691,4.947,8.691,7.854
					c0,2.262-1.176,4.068-3.521,5.42c-2.332,1.348-5.477,2.023-9.432,2.023C318.836,150.355,315.547,150.052,311.84,149.457z"/>
			</g>
			<g>
				<circle cx="159.146" cy="137.502" r="2.52"/>
				<circle fill="#FFFFFF" cx="160.139" cy="136.508" r="2.52"/>
			</g>
			<g>
				<circle cx="203.396" cy="137.502" r="2.52"/>
				<circle fill="#FFFFFF" cx="204.389" cy="136.508" r="2.52"/>
			</g>
			<g>
				<circle cx="260.396" cy="137.502" r="2.52"/>
				<circle fill="#FFFFFF" cx="261.389" cy="136.508" r="2.52"/>
			</g>
			<g>
				<circle cx="301.389" cy="137.502" r="2.52"/>
				<circle fill="#FFFFFF" cx="302.381" cy="136.508" r="2.52"/>
			</g>
		</g>
	</g>
</g>
</svg>
