<?xml version="1.0" encoding="utf-8"?>
<!-- Generator: Adobe Illustrator 16.0.4, SVG Export Plug-In . SVG Version: 6.00 Build 0)  -->
<!DOCTYPE svg PUBLIC "-//W3C//DTD SVG 1.1//EN" "http://www.w3.org/Graphics/SVG/1.1/DTD/svg11.dtd">
<svg version="1.1" id="Layer_1" xmlns="http://www.w3.org/2000/svg" xmlns:xlink="http://www.w3.org/1999/xlink" x="0px" y="0px"
	 width="518px" height="272px" viewBox="0 0 518 272" enable-background="new 0 0 518 272" xml:space="preserve">
<g>
	
		<image overflow="visible" enable-background="new    " width="2367" height="1133" xlink:href="15426A15081C4D57.png"  transform="matrix(0.2399 0 0 0.2387 -18.9702 -2.2012)">
	</image>
	<g>
		<g>
			<g>
				<g>
					<defs>
						<path id="SVGID_1_" d="M455.7,110.8c2.2,0,2.8,2,2.8,3.8c0,8.8-10.8,20.1-17.9,24.4C441.7,133.1,449.1,110.8,455.7,110.8
							 M426.6,149.6c0,11.801,5.301,22.5,18.4,22.5c18.1,0,34-13.3,42.6-28.3c1-1.8,1.5-2.8,1.5-5c0-1.2-1.3-1.8-2.3-1.8
							c-2.3,0-4,2.7-5,4.3c-6.6,11.101-17.7,23-31.7,23c-7.8,0-10.8-4.6-10.8-12.1c0-2.3,0.3-4.601,0.8-7
							c10.101-3.601,25.7-21.2,25.7-32.3c0-5.8-3.3-10-9.3-10C438.7,103,426.6,134.6,426.6,149.6 M365.1,222.8
							c0-18.399,17.7-31.8,32.801-38.8c0.3,1.8,0.5,3.6,0.5,5.5c0,10.3-4.601,25.4-11.4,33c-3.5,4-9.4,9-15.1,9
							C366.7,231.5,365.1,227.3,365.1,222.8 M286.8,110.8c2.2,0,2.8,2,2.8,3.8c0,8.8-10.8,20.1-17.899,24.4
							C272.7,133.1,280.2,110.8,286.8,110.8 M340,110.8c2.2,0,2.8,2,2.8,3.8c0,8.8-10.8,20.1-17.899,24.4
							C325.9,133.1,333.4,110.8,340,110.8 M369.2,112.1c0-2.1,1.3-3.6,3.5-3.6c3.3,0,4,3.6,3.8,6.1v0.7c-0.7,0.2-1.2,0.2-1.8,0.2
							C372.5,115.4,369.2,114.7,369.2,112.1 M198.4,106.8c0,5,1.3,9.9,4.3,13.9c-1.3,11.3-8,20.899-14.3,30
							c-0.8,1.2-1.5,2.3-1.5,3.6s0.8,2.2,2.2,2.2c1.8,0,3.3-1.3,4.5-2.5c7.3-7.5,12.4-20.1,15.9-29.7c4.8,1.5,9.8,4.8,9.8,10.3
							c0,6.1-0.8,12.1-0.8,18.2c0,7.8,0.7,23.2,11.6,23.2c8.3,0,20.5-12.1,27.9-21.5c1.4,9.6,6.9,17.5,18.1,17.5
							c13.7,0,26.101-7.6,35.101-17.9c1.3,9.801,6.8,17.9,18.1,17.9c16.4,0,31.101-11,40.101-24.3c4.5-5.8,9.899-19.1,11-22.4
							c0.699-1.8,0.8-3.8,1.5-5.6c3.699-1.7,9.1-3.1,13.1-3.1c3.8,0,7,1.3,7,5.6c0,9.6-11.1,21.899-17.9,28
							c-1.3,1.2-3.199,2.8-3.199,4.6c0,2.3,2.3,4.3,4,5.601c4.6,4.1,9.3,8.6,11.3,14.8c-17.7,9-37.8,27.399-37.8,48.7
							c0,9.3,6.6,14.6,15.6,14.6c23.5,0,37.6-28.7,37.6-49.2c0-13.6-4.1-27.7-16.1-35.5c6.6-8.6,19.7-20.4,19.7-31.8
							c0-8.8-5.5-13.3-13.9-13.3c-6.6,0-13.1,2.3-18.899,5.1c-0.2-5.3-3-10.3-8.801-10.3c-5.5,0-9.8,3.5-9.8,9.1
							c0,6.1,6.601,7.8,11.4,7.5h0.7c-0.4,3.2-5.4,13.4-8.7,19.4c-0.4,0.6-0.8,1.2-1.101,1.7c-6.6,11.1-17.699,23-31.699,23
							c-7.801,0-10.801-4.601-10.801-12.101c0-2.3,0.301-4.6,0.801-7c10.1-3.6,25.699-21.2,25.699-32.3c0-5.8-3.3-10-9.3-10
							c-15.8,0-27.1,24.6-29.5,40.7c-6.7,10.4-17.2,20.6-30.2,20.6c-7.799,0-10.799-4.6-10.799-12.1c0-2.3,0.299-4.6,0.799-7
							c10.101-3.6,25.701-21.2,25.701-32.3c0-5.8-3.301-10-9.301-10c-15.8,0-27.1,24.7-29.5,40.7c-0.3,0.399-0.6,0.899-0.8,1.199
							c-4.1,6.101-17.7,23.4-25.4,23.4c-3.1,0-3.1-4-3.1-6.1c0-8,1.5-15.601,3.3-23.4c0.5-2.2,0.8-4.3,0.8-6.5
							c0-14.8-14.6-15.4-19.7-23.2c0.3-2.7,0.5-5.3,0.5-8c0-3.3-0.8-12.9-5.5-12.9C201.6,88.2,198.4,101.7,198.4,106.8"/>
					</defs>
					<clipPath id="SVGID_2_">
						<use xlink:href="#SVGID_1_"  overflow="visible"/>
					</clipPath>
					
						<linearGradient id="SVGID_3_" gradientUnits="userSpaceOnUse" x1="-416.1245" y1="-31.2158" x2="-412.0239" y2="-31.2158" gradientTransform="matrix(-100.5173 0 0 -100.5173 -41285.2422 -2980.7227)">
						<stop  offset="0" style="stop-color:#F7B917"/>
						<stop  offset="0.0157" style="stop-color:#F7B917"/>
						<stop  offset="0.7597" style="stop-color:#008DD2"/>
					</linearGradient>
					<rect x="165.8" y="66.9" clip-path="url(#SVGID_2_)" fill="url(#SVGID_3_)" width="362.101" height="180.3"/>
				</g>
			</g>
			<text transform="matrix(1 0 0 1 46.1689 228.5488)" font-family="'GillSans-SemiBold'" font-size="18.813" letter-spacing="1">R</text>
			<text transform="matrix(1 0 0 1 60.8691 228.5488)" font-family="'GillSans-SemiBold'" font-size="18.813" letter-spacing="1">E</text>
			<text transform="matrix(1 0 0 1 74.269 228.5488)" font-family="'GillSans-SemiBold'" font-size="18.813" letter-spacing="1">LAX.</text>
			<text transform="matrix(1 0 0 1 127.769 228.5488)" font-family="'GillSans-SemiBold'" font-size="18.813" letter-spacing="1"> D</text>
			<text transform="matrix(1 0 0 1 152.8691 228.5488)" font-family="'GillSans-SemiBold'" font-size="18.813" letter-spacing="1">IS</text>
			<text transform="matrix(1 0 0 1 173.5688 228.5488)" font-family="'GillSans-SemiBold'" font-size="18.813" letter-spacing="1">C</text>
			<text transform="matrix(1 0 0 1 189.6689 228.5488)" font-family="'GillSans-SemiBold'" font-size="18.813" letter-spacing="1">O</text>
			<text transform="matrix(1 0 0 1 207.8691 228.5488)" font-family="'GillSans-SemiBold'" font-size="18.813" letter-spacing="1">VE</text>
			<text transform="matrix(1 0 0 1 236.3691 228.5488)" font-family="'GillSans-SemiBold'" font-size="18.813" letter-spacing="1">R.</text>
			<text transform="matrix(1 0 0 1 258.3691 228.5488)" font-family="'GillSans-SemiBold'" font-size="18.813" letter-spacing="1"> EN</text>
			<text transform="matrix(1 0 0 1 297.2695 228.5488)" font-family="'GillSans-SemiBold'" font-size="18.813" letter-spacing="1">J</text>
			<text transform="matrix(1 0 0 1 305.3691 228.5488)" font-family="'GillSans-SemiBold'" font-size="18.813">O</text>
			<text transform="matrix(1 0 0 1 322.9688 228.5488)" font-family="'GillSans-SemiBold'" font-size="18.813">Y</text>
			<text transform="matrix(1 0 0 1 336.0684 228.5488)" font-family="'GillSans-SemiBold'" font-size="18.813">.</text>
			<g>
				<g>
					<defs>
						<path id="SVGID_4_" d="M96.8,92.3c-1.3-10.5-4.4-20.2-10-28.7c-6.8-10.3-16-17.2-26.4-22.1c-0.9-0.4-1.8-0.6-2.8-0.6
							c-0.1,0-0.2,0-0.2,0h-0.1c-1.9,0.2-2.8,1.9-2.2,4c0.5,1.6,1.5,2.4,2.8,3.1c3.3,1.8,6.7,3.5,9.8,5.6c16,11,23.3,27.5,23.4,48.6
							c0,9.9-3.2,18.7-9.1,26.1c-8.5,10.7-18.8,16.5-31.7,14.2c-5.8-1-10.9-3.9-14.6-9.2c-4.4-6.2-3.9-14,1.3-19.4
							c2.1-2.2,4.6-3.9,7-5.6c3-2,6.2-3.7,9.3-5.6c1.1-0.7,2.2-1.5,3.2-2.5c1.5-1.4,1.7-3,0.6-4.7c-0.7-1.1-1.6-2.1-2.5-3
							c0,0-0.4-1.2-4.1,0.2c-3.7,1.5-3.1,2.8-3.1,2.8c0.6,0.5,1.2,1,1.9,1.5c-0.7,0.4-1.3,0.8-1.9,1.1c-3.6,2.2-7.3,4.3-10.9,6.7
							c-4.2,2.9-7.4,7-9,12.4c-0.5,1.6-0.8,3.3-1.2,5c0,0.3,0,0.7-0.1,1c0.1,0.9,0.1,1.9,0.2,2.8c0.6,6.4,3.4,11.5,7.6,15.5
							c4.5,4.4,9.9,6.9,15.8,8c0.4,0.1,0.9,0.2,1.3,0.4c1.2,0.1,2.4,0.199,3.6,0.3c0.7-0.101,1.4-0.101,2.1-0.2
							c1.5-0.1,3.1-0.2,4.6-0.6c26.6-4.2,32.9-26.2,33.3-26.3c0.4-0.1,0.4,0.4,0.7,2c5.2,23.7,17.8,40,38.4,48
							c2.8,1.101,5.8,1.5,8.7,2.2c1.6,0.101,3.2,0.2,4.8,0.3c2.6-0.3,5.2-0.399,7.8-0.899c8-1.5,15.3-5,21.4-11.4
							c10.4-11.1,11.4-28,2.3-40.2c-3.2-4.3-7.2-7.6-11.2-10.8c-2.6-2-5.2-4.1-8-6.3c1.1-0.6,2-1.2,2.8-1.7
							c6.4-3.7,12.1-8.4,16.6-14.8c2.6-3.6,4.5-7.6,5.2-12.2c1.6-10.2-3.2-18.5-12-21.1c-5.7-1.7-11.4-1.2-17,0.5
							c-14.1,4.4-26.1,12.7-34.9,26.3c-6.9,10.6-9.6,22.6-8.1,35.6c0.3,2.9,1.9,5,4.2,6.3c1.7,1,3.3,0.3,4-1.7
							c0.4-1.2,0.6-2.6,0.4-3.9c-2.3-15.8,2.6-28.7,13.1-39.2c7.9-7.9,17-13.2,27.4-15.1c3.2-0.6,6.4-0.5,9.4,0.8
							c4.7,1.9,6.4,6.1,4.9,11.5c-1.2,4.2-3.5,7.7-6.5,10.4c-3.4,3-7.2,5.7-10.9,8.4c-1.8,1.3-3.7,2.1-5.5,3.4
							c-1.3,0.9-2.5,2.1-3.5,3.4c-1.5,1.9-1.5,3.9,0,5.7c1.3,1.6,2.8,3.1,4.3,4.4c3.9,3.3,8.1,6.2,11.9,9.6c2.7,2.4,5.3,5,7.4,8
							c5.6,8.1,4.8,18.3-1.9,25.5c-5.9,6.4-13.1,9.301-21.1,9.601c-16.6,0.7-28.9-8.101-38.2-22.8c-7.1-11.3-10.2-24.101-8.2-38
							c4-27.6,16.8-48.1,39.8-59.6c4.3-2.1,8.8-3.6,13.2-5.4c1.3-0.5,2.6-1,3.7-1.9c3.4-2.7,3.2-6.1-0.4-8.1c-0.6,0-1.2-0.1-1.8-0.1
							c-4.9,1.7-9.9,3.1-14.6,5.3c-21.8,9.8-37.6,26.2-45.2,51.6C98,88.5,96.9,92.5,96.8,92.3z"/>
					</defs>
					<clipPath id="SVGID_5_">
						<use xlink:href="#SVGID_4_"  overflow="visible"/>
					</clipPath>
					
						<linearGradient id="SVGID_6_" gradientUnits="userSpaceOnUse" x1="-399.937" y1="-36.0898" x2="-396.0239" y2="-36.0898" gradientTransform="matrix(46.9804 0 0 46.9804 18834.0566 1803.5)">
						<stop  offset="0.0035" style="stop-color:#F7B917"/>
						<stop  offset="0.7344" style="stop-color:#008DD2"/>
					</linearGradient>
					<rect x="2" y="18.8" clip-path="url(#SVGID_5_)" fill="url(#SVGID_6_)" width="207.4" height="178.3"/>
				</g>
			</g>
		</g>
	</g>
</g>
</svg>
